# Blender 3.3.12
# www.blender.org
mtllib Boat.mtl
o Boat
v -1.500000 1.000000 3.000000
v -1.500000 1.000000 -3.000000
v 1.500000 1.000000 3.000000
v 1.500000 1.000000 -3.000000
v -1.500000 1.000000 0.000000
v 1.500000 1.000000 0.000000
v 0.000000 1.100000 0.000000
v 1.528946 2.050000 -2.668419
v 1.528946 2.050000 2.668419
v -1.528946 2.050000 2.668419
v -1.528946 2.050000 -2.668419
v -1.528946 2.050000 0.000000
v 1.528946 2.050000 0.000000
v 0.000000 2.050000 -4.251178
v 0.000000 2.050000 3.168419
v -1.078946 1.100000 2.436587
v -1.305119 1.199458 2.668419
v -1.078946 1.100000 -2.547798
v -1.305112 1.199431 -2.668419
v 1.078946 1.100000 -2.547798
v 1.305112 1.199431 -2.668419
v 1.078946 1.100000 2.436587
v 1.305119 1.199458 2.668419
v -1.305113 1.199433 0.000000
v -1.078946 1.100000 0.000000
v 1.305113 1.199433 0.000000
v 1.078946 1.100000 0.000000
v 0.000000 1.199883 -4.151177
v 0.000000 1.100000 -3.717799
v 0.000000 1.199532 3.168419
v 0.000000 1.100000 2.858397
v -1.773710 2.980101 2.668419
v -1.813691 3.030000 2.720537
v -1.773711 2.980105 -2.668419
v -1.812938 3.030000 -2.719408
v 1.773710 2.980101 2.668419
v 1.813691 3.030000 2.720537
v 1.773711 2.980105 -2.668419
v 1.812938 3.030000 -2.719408
v -1.964988 3.030000 2.947482
v -1.995022 2.980089 3.000000
v -1.965747 3.030000 -2.948621
v -1.995023 2.980092 -3.000000
v 1.965747 3.030000 -2.948621
v 1.995023 2.980092 -3.000000
v 1.964988 3.030000 2.947482
v 1.308865 2.890343 3.134074
v -1.995023 2.980093 0.000000
v -1.965161 3.030000 0.000000
v 1.995023 2.980093 0.000000
v 1.965161 3.030000 0.000000
v -1.813531 3.030000 0.000000
v -1.773711 2.980105 0.000000
v 1.813531 3.030000 0.000000
v 1.773711 2.980105 0.000000
v 0.000000 2.980043 -5.000000
v 0.000000 3.030000 -4.914889
v 0.633109 2.895344 3.371726
v 0.000000 3.030000 3.438746
v 0.000000 3.030000 -4.757076
v 0.000000 2.980041 -4.668419
v 0.000000 3.030000 3.230270
v 0.000000 2.980092 3.168419
v 0.000000 3.050053 3.310123
v 0.000000 3.050053 3.358892
v -1.874400 3.051007 2.811601
v -1.904279 3.051007 2.856418
v -1.904248 3.051031 0.000000
v -1.874445 3.051031 0.000000
v -1.904108 3.051118 -2.856161
v -1.874578 3.051118 -2.811867
v 0.000000 3.047357 -4.809398
v 0.000000 3.047357 -4.862567
v 1.904248 3.051031 0.000000
v 1.874445 3.051031 0.000000
v 1.904279 3.051007 2.856418
v 1.874400 3.051007 2.811601
v 1.874578 3.051118 -2.811867
v 1.904108 3.051118 -2.856161
v 0.832050 0.777350 -3.890600
v -0.832050 0.777350 -3.890600
v 0.000000 1.000000 -4.482759
v -1.082050 0.777350 3.222650
v 1.082050 0.777350 3.222650
v 0.000000 1.000000 3.500000
v 0.832050 0.777350 0.000000
v -0.832050 0.777350 0.000000
v -1.847511 1.990045 3.000000
v -1.847512 1.990047 0.000000
v -1.847512 1.990046 -3.000000
v 0.000000 1.990021 -4.741380
v 1.847512 1.990046 -3.000000
v 1.847512 1.990047 0.000000
v 1.267235 2.004789 3.119422
v 0.632372 2.079779 3.375025
v 0.000000 2.980082 3.500000
v 1.995022 2.980089 3.000000
v 0.000000 1.990041 3.500000
v 1.847511 1.990045 3.000000
v 0.699616 2.892506 3.548899
v 0.762811 2.869819 3.591369
v 1.354004 2.865444 3.382667
v 1.375372 2.887505 3.311249
v 0.698882 2.076940 3.552207
v 0.761772 2.093138 3.592501
v 1.314934 2.027815 3.370651
v 1.333745 2.001951 3.296605
vn 0.2754 -0.9287 -0.2485
vn 0.6510 -0.7324 -0.1998
vn 0.6284 -0.7779 -0.0050
vn 0.1559 -0.9878 -0.0032
vn 0.9199 -0.2127 -0.3295
vn 0.8880 0.3222 -0.3281
vn 0.9774 0.2113 -0.0000
vn 0.9703 -0.2420 -0.0000
vn -0.6284 -0.7779 -0.0050
vn -0.1559 -0.9878 -0.0032
vn -0.2208 -0.9401 0.2597
vn -0.6493 -0.6870 0.3263
vn -0.9703 -0.2420 -0.0000
vn -0.9774 0.2113 -0.0000
vn -0.8880 0.3222 -0.3281
vn -0.9199 -0.2127 -0.3295
vn -0.8626 -0.1903 0.4687
vn -0.0102 -0.0154 0.9998
vn -0.0106 0.4920 0.8705
vn -0.8105 0.3690 0.4549
vn -0.1960 0.9780 0.0711
vn -0.0000 0.9885 0.1510
vn -0.0000 1.0000 -0.0000
vn -0.1853 0.9827 -0.0000
vn -0.0000 0.7543 0.6565
vn 0.7926 0.5567 0.2487
vn 0.9178 0.2430 0.3139
vn -0.0000 0.2756 0.9613
vn 0.1538 0.9881 -0.0000
vn 0.1366 0.9881 0.0713
vn 0.4229 0.8763 0.2309
vn 0.5668 0.8238 -0.0000
vn -0.0000 0.5377 -0.8431
vn -0.7110 0.5936 -0.3770
vn -0.8605 0.2065 -0.4657
vn -0.0000 0.0431 -0.9991
vn 0.2974 0.9414 -0.1588
vn 0.5314 0.8471 -0.0000
vn 0.0495 0.9983 -0.0305
vn 0.1960 0.9780 0.0711
vn 0.1853 0.9827 -0.0000
vn 0.1729 0.9802 -0.0966
vn -0.0000 0.9883 -0.1524
vn -0.9671 0.2545 -0.0000
vn -0.6838 0.7297 -0.0000
vn -0.5921 0.7379 -0.3238
vn 0.9671 0.2545 -0.0000
vn 0.6838 0.7297 -0.0000
vn 0.6571 0.7197 0.2242
vn -0.9178 0.2430 0.3139
vn -0.0000 0.8099 0.5865
vn -0.6571 0.7197 0.2242
vn -0.8869 0.4620 -0.0000
vn -0.7926 0.5567 0.2487
vn 0.8869 0.4620 -0.0000
vn 0.7110 0.5936 -0.3770
vn 0.8605 0.2065 -0.4657
vn 0.6493 -0.6870 0.3263
vn 0.2208 -0.9401 0.2597
vn 0.8071 0.3693 0.4607
vn 0.8571 -0.1950 0.4768
vn -0.2026 -0.5994 0.7744
vn 0.3641 -0.7767 0.5139
vn 0.4186 -0.9066 0.0536
vn -0.3850 -0.8686 0.3119
vn -0.0000 -0.1873 -0.9823
vn -0.0000 0.5177 -0.8556
vn -0.1729 0.9802 -0.0966
vn 0.5921 0.7379 -0.3238
vn -0.0000 0.7772 -0.6293
vn -0.1366 0.9881 0.0713
vn -0.1538 0.9881 -0.0000
vn -0.5668 0.8238 -0.0000
vn -0.4229 0.8763 0.2309
vn -0.0000 0.9651 0.2620
vn -0.3953 0.9099 0.1261
vn -0.0808 0.9961 0.0353
vn -0.0000 0.9985 0.0546
vn 0.3953 0.9099 0.1261
vn 0.0808 0.9961 0.0353
vn -0.2974 0.9414 -0.1588
vn -0.0000 0.9336 -0.3583
vn -0.0000 0.9961 -0.0883
vn -0.0495 0.9983 -0.0305
vn -0.4916 0.8538 -0.1715
vn -0.0000 0.9378 -0.3473
vn 0.4916 0.8538 -0.1715
vn -0.0000 0.9210 0.3896
vn -0.5314 0.8471 -0.0000
vn -0.0000 0.9939 0.1104
vn -0.0000 0.9932 -0.1166
vn 0.1636 0.9854 -0.0478
vn -0.1636 0.9854 -0.0478
vn -0.2754 -0.9287 -0.2485
vn -0.0000 -0.6694 -0.7429
vn -0.0000 -0.4126 0.9109
vn -0.6510 -0.7324 -0.1998
vn -0.1217 0.5608 0.8189
vn 0.4398 0.7195 0.5375
vn -0.3019 0.9070 0.2936
vn 0.5411 -0.6486 0.5354
vn 0.6094 0.5722 0.5488
vn -0.0165 0.6777 0.7352
vn -0.0637 -0.6562 0.7519
vn 0.5176 0.8539 0.0532
vt 0.793001 0.344206
vt 0.290083 0.367996
vt 0.302674 0.416332
vt 0.793001 0.068207
vt 0.290084 0.091997
vt 0.592389 0.286770
vt 1.000000 0.344206
vt 0.544046 0.660265
vt 0.493521 0.416332
vt 1.000000 0.068207
vt 0.544048 0.384266
vt 0.780463 0.280062
vt 0.793001 0.206206
vt 0.290083 0.229997
vt 1.000000 0.206206
vt 0.544047 0.522265
vt 0.884336 0.806012
vt 0.546390 0.778639
vt 0.959079 0.517645
vt 0.306569 0.821452
vt 0.791884 0.778636
vt 0.144551 0.374819
vt 0.498373 0.824265
vt 0.136594 0.620184
vt 0.140573 0.497502
vt 0.669137 0.778637
vt 0.146213 0.693344
vt 0.833397 0.516793
vt 0.392896 0.824495
vt 0.472286 0.692337
vt 0.809889 0.693929
vt 0.262857 0.378656
vt 0.794283 0.683265
vt 0.482274 0.706993
vt 0.809889 0.923210
vt 0.254905 0.624021
vt 0.794284 0.928759
vt 0.938071 0.384534
vt 0.958783 0.923210
vt 0.546389 0.660266
vt 0.949611 0.400408
vt 0.974388 0.928758
vt 0.958783 0.693929
vt 0.791883 0.660267
vt 0.318549 0.704592
vt 0.974388 0.683265
vt 0.258883 0.501338
vt 0.794283 0.806012
vt 0.809889 0.806012
vt 0.669136 0.660265
vt 0.974388 0.806011
vt 0.958783 0.806012
vt 0.262857 0.692524
vt 0.839912 0.400569
vt 0.884336 0.996965
vt 0.848407 0.384266
vt 0.884336 0.977030
vt 0.884335 0.660265
vt 0.390836 0.707439
vt 0.396533 0.692725
vt 0.884336 0.674526
vt 0.015177 0.370624
vt 0.515978 0.952507
vt 0.517608 0.959582
vt 0.008104 0.367996
vt 0.300626 0.033013
vt 0.007221 0.615989
vt 0.300629 0.283250
vt 0.000000 0.618101
vt 0.791885 0.908077
vt 0.293469 0.949244
vt 0.794283 0.915232
vt 0.290084 0.956246
vt 0.550914 0.033062
vt 0.969432 0.645846
vt 0.546391 0.908080
vt 0.970703 0.653227
vt 0.544046 0.915229
vt 0.550814 0.283298
vt 0.291687 0.692337
vt 0.015403 0.365578
vt 0.290188 0.022572
vt 0.290217 0.685127
vt 0.022482 0.367994
vt 0.015409 0.094359
vt 0.290083 0.293792
vt 0.022481 0.091995
vt 0.791674 0.000000
vt 0.818723 0.386630
vt 0.561356 0.293844
vt 0.793001 0.007006
vt 0.811650 0.384266
vt 0.818726 0.657849
vt 0.541695 0.692337
vt 0.561356 0.022624
vt 0.531835 0.672571
vt 0.022481 0.229995
vt 0.015404 0.229995
vt 0.290150 0.158156
vt 0.811650 0.522265
vt 0.818726 0.522266
vt 0.561341 0.158208
vt 0.300613 0.158158
vt 0.004050 0.493075
vt 0.011199 0.493307
vt 0.669138 0.915232
vt 0.550879 0.158206
vt 0.669138 0.908079
vt 0.630008 0.019937
vt 0.006849 0.000000
vt 0.631155 0.012716
vt 0.000000 0.003915
vt 0.425702 0.384266
vt 0.435498 0.669179
vt 0.425299 0.688272
vt 0.425776 0.000000
vt 0.425703 0.377006
vt 0.818726 0.653227
vt 0.011166 0.712249
vt 0.820627 0.645877
vt 0.018144 0.708395
vt 0.394084 0.959582
vt 0.425774 0.009590
vt 0.395148 0.952510
vt 0.425775 0.005917
vt 0.425776 0.003673
vt 0.296438 0.028824
vt 0.294376 0.026762
vt 0.294353 0.158156
vt 0.296409 0.158157
vt 0.294337 0.289539
vt 0.296375 0.287502
vt 0.425703 0.379413
vt 0.425703 0.381859
vt 0.557138 0.158207
vt 0.555082 0.158207
vt 0.557166 0.026812
vt 0.555104 0.028874
vt 0.555066 0.287552
vt 0.557103 0.289590
vt 0.953912 0.027239
vt 0.723781 0.315903
vt 0.839089 0.027239
vt 0.619456 0.319624
vt 0.896500 0.000000
vt 0.658310 0.289691
vt 0.821839 0.354447
vt 0.331023 0.384266
vt 0.971162 0.354447
vt 0.468694 0.384266
vt 0.406859 0.412195
vt 0.953912 0.206206
vt 0.839089 0.206206
vt 0.157066 0.367995
vt 0.290083 0.550730
vt 0.157066 0.229995
vt 0.157066 0.091996
vt 0.561356 0.151573
vt 0.142587 0.011897
vt 0.644159 0.154814
vt 0.677065 0.384266
vt 0.793001 0.143311
vt 0.677064 0.522265
vt 0.516411 0.562521
vt 0.427656 0.559164
vt 0.425893 0.680989
vt 0.811648 0.660265
vt 0.544046 0.685127
vt 0.416376 0.546592
vt 0.677063 0.660265
vt 0.525145 0.550730
vt 0.435498 0.669179
vt 0.441238 0.666553
vt 0.525516 0.669636
vt 0.531835 0.672571
vt 0.427656 0.559164
vt 0.433678 0.562267
vt 0.511015 0.565073
vt 0.516411 0.562521
s 1
f 80/141/1 4/10/2 6/15/3 86/152/4
f 92/161/5 45/92/6 50/100/7 93/163/8
f 5/13/9 87/153/10 83/147/11 1/1/12
f 89/156/13 48/97/14 43/87/15 90/157/16
f 88/155/17 98/169/18 96/166/19 41/83/20
f 20/39/21 29/57/22 7/17/23 27/52/24
f 61/121/25 34/67/26 11/24/27 14/27/28
f 74/135/29 76/137/30 46/95/31 51/102/32
f 63/124/33 36/71/34 9/20/35 15/29/36
f 33/66/37 52/103/38 69/130/29 66/127/39
f 29/57/22 18/35/40 25/49/41 7/17/23
f 7/17/23 25/49/41 16/31/42 31/61/43
f 9/21/35 13/26/44 26/50/45 23/44/46
f 11/24/27 12/25/47 24/47/48 19/36/49
f 8/19/50 14/28/28 28/54/51 21/41/52
f 14/27/28 11/24/27 19/36/49 28/53/51
f 55/108/53 38/76/54 8/18/50 13/26/44
f 53/105/55 32/62/56 10/22/57 12/25/47
f 86/152/4 6/15/3 3/7/58 84/149/59
f 93/163/8 50/100/7 97/167/60 99/170/61
f 95/165/62 94/164/63 107/179/64 104/176/65
f 92/162/5 91/160/66 56/109/67 45/91/6
f 27/52/24 7/17/23 31/61/43 22/43/68
f 13/26/44 8/18/50 21/40/52 26/50/45
f 12/25/47 10/22/57 17/32/69 24/47/48
f 15/29/36 9/20/35 23/45/46 30/59/70
f 38/75/54 61/120/25 14/28/28 8/19/50
f 36/70/34 55/108/53 13/26/44 9/21/35
f 90/157/16 43/87/15 56/110/67 91/159/66
f 67/128/71 68/129/72 49/99/73 40/82/74
f 60/117/75 39/79/76 78/139/77 72/133/78
f 52/103/38 35/68/79 71/132/80 69/130/29
f 35/68/79 60/117/75 72/133/78 71/132/80
f 37/74/81 62/123/82 64/125/83 77/138/84
f 34/67/26 53/105/55 12/25/47 11/24/27
f 88/154/17 41/84/20 48/97/14 89/156/13
f 25/49/41 18/35/40 19/37/49 24/48/48
f 29/56/22 20/38/21 21/41/52 28/54/51
f 27/52/24 22/43/68 23/46/46 26/51/45
f 31/60/43 16/30/42 17/34/69 30/59/70
f 16/31/42 25/49/41 24/48/48 17/33/69
f 20/39/21 27/52/24 26/51/45 21/42/52
f 18/35/40 29/57/22 28/55/51 19/37/49
f 22/43/68 31/61/43 30/58/70 23/46/46
f 10/23/57 15/29/36 30/59/70 17/34/69
f 49/98/73 42/85/85 43/87/15 48/97/14
f 57/111/86 44/88/87 45/91/6 56/109/67
f 51/101/32 46/93/31 97/167/60 50/100/7
f 59/115/88 40/80/74 41/83/20 96/166/19
f 53/105/55 34/67/26 35/69/79 52/104/38
f 61/120/25 38/75/54 39/77/76 60/118/75
f 55/108/53 36/70/34 37/72/81 54/106/89
f 63/124/33 32/63/56 33/64/37 62/122/82
f 40/81/74 49/98/73 48/97/14 41/84/20
f 44/89/87 51/101/32 50/100/7 45/92/6
f 32/62/56 53/105/55 52/104/38 33/65/37
f 38/76/54 55/108/53 54/106/89 39/78/76
f 42/85/85 57/112/86 56/110/67 43/87/15
f 46/94/31 59/115/88 96/166/19 97/168/60
f 34/67/26 61/121/25 60/119/75 35/69/79
f 36/71/34 63/124/33 62/122/82 37/73/81
f 32/63/56 63/124/33 15/29/36 10/23/57
f 65/126/90 67/128/71 40/82/74 59/116/88
f 73/134/91 79/140/92 44/90/87 57/113/86
f 70/131/93 73/134/91 57/113/86 42/86/85
f 79/140/92 74/135/29 51/102/32 44/90/87
f 39/79/76 54/107/89 75/136/72 78/139/77
f 76/137/30 65/126/90 59/116/88 46/95/31
f 68/129/72 70/131/93 42/86/85 49/99/73
f 54/107/89 37/74/81 77/138/84 75/136/72
f 65/126/90 76/137/30 77/138/84 64/125/83
f 73/134/91 70/131/93 71/132/80 72/133/78
f 70/131/93 68/129/72 69/130/29 71/132/80
f 76/137/30 74/135/29 75/136/72 77/138/84
f 79/140/92 73/134/91 72/133/78 78/139/77
f 67/128/71 65/126/90 64/125/83 66/127/39
f 68/129/72 67/128/71 66/127/39 69/130/29
f 74/135/29 79/140/92 78/139/77 75/136/72
f 62/123/82 33/66/37 66/127/39 64/125/83
f 80/141/1 81/143/94 82/145/95
f 83/148/11 84/150/59 85/151/96
f 80/141/1 86/152/4 87/153/10 81/143/94
f 86/152/4 84/149/59 83/147/11 87/153/10
f 2/4/97 81/143/94 87/153/10 5/13/9
f 1/2/12 88/154/17 89/156/13 5/14/9
f 5/14/9 89/156/13 90/157/16 2/5/97
f 6/16/3 93/163/8 99/170/61 3/8/58
f 4/11/2 92/161/5 93/163/8 6/16/3
f 3/9/58 99/171/61 98/169/18 85/151/96 84/150/59
f 83/148/11 85/151/96 98/169/18 88/155/17 1/3/12
f 80/142/1 82/146/95 91/160/66 92/162/5 4/12/2
f 2/6/97 90/158/16 91/160/66 82/146/95 81/144/94
f 58/114/98 47/96/99 97/168/60 96/166/19
f 95/165/62 58/114/98 96/166/19 98/169/18
f 47/96/99 94/164/63 99/171/61 97/168/60
f 94/164/63 95/165/62 98/169/18 99/171/61
f 58/114/98 95/165/62 104/176/65 100/172/100
f 106/178/101 102/174/102 101/173/103 105/177/104
f 94/164/63 47/96/99 103/175/105 107/179/64
f 101/173/103 102/174/102 103/175/105 100/172/100
f 105/177/104 101/173/103 100/172/100 104/176/65
f 102/174/102 106/178/101 107/179/64 103/175/105
f 106/178/101 105/177/104 104/176/65 107/179/64
f 47/96/99 58/114/98 100/172/100 103/175/105
