# Blender 3.3.12
# www.blender.org
mtllib Workbench.mtl
o Workbench
v 7.175440 0.900000 -2.350879
v 7.000000 1.100000 -2.000000
v 7.175440 0.900000 -5.649120
v 7.000000 1.100000 -6.000000
v 8.824560 0.900000 -2.350879
v 9.000000 1.100000 -2.000000
v 8.824560 0.900000 -5.649120
v 9.000000 1.100000 -6.000000
v 7.000000 0.900000 -6.000000
v 7.000000 0.900000 -2.000000
v 9.000000 0.900000 -6.000000
v 9.000000 0.900000 -2.000000
v 7.114462 0.900000 -5.771076
v 7.114462 0.900000 -2.228924
v 8.885538 0.900000 -5.771076
v 8.885538 0.900000 -2.228924
v 7.114462 0.797161 -5.771076
v 7.114462 0.797161 -2.228924
v 8.885538 0.797161 -5.771076
v 8.885538 0.797161 -2.228924
v 7.175440 0.797161 -5.649120
v 7.175440 0.797161 -2.350879
v 8.824560 0.797161 -5.649120
v 8.824560 0.797161 -2.350879
v 8.885538 -0.886742 -5.771076
v 7.114462 -0.886742 -5.771076
v 7.114462 -0.886742 -2.228924
v 8.885538 -0.886742 -2.228924
v 8.824560 -0.886742 -5.649120
v 7.175440 -0.886742 -5.649120
v 7.175440 -0.886742 -2.350879
v 8.824560 -0.886742 -2.350879
vn -1.0000 -0.0000 -0.0000
vn -0.0000 -0.0000 -1.0000
vn 1.0000 -0.0000 -0.0000
vn -0.0000 -0.0000 1.0000
vn -0.0000 -1.0000 -0.0000
vn -0.0000 1.0000 -0.0000
vn 0.8944 -0.0000 0.4472
vn -0.8944 -0.0000 0.4472
vn 0.8944 -0.0000 -0.4472
vn -0.8944 -0.0000 -0.4472
vt 0.146930 0.728070
vt 0.625000 0.000000
vt 0.625000 1.000000
vt 0.875000 0.750000
vt 0.146930 0.521930
vt 0.625000 0.250000
vt 0.875000 0.500000
vt 0.353070 0.728070
vt 0.625000 0.750000
vt 0.353070 0.521930
vt 0.625000 0.500000
vt 0.375000 0.250000
vt 0.125000 0.500000
vt 0.375000 0.000000
vt 0.375000 1.000000
vt 0.125000 0.750000
vt 0.375000 0.500000
vt 0.375000 0.750000
vt 0.139308 0.514308
vt 0.139308 0.735692
vt 0.360692 0.514308
vt 0.360692 0.735692
vt 0.139308 0.514308
vt 0.139308 0.735692
vt 0.360692 0.514308
vt 0.360692 0.735692
vt 0.146930 0.521930
vt 0.146930 0.728070
vt 0.353070 0.521930
vt 0.353070 0.728070
vt 0.360692 0.514308
vt 0.139308 0.514308
vt 0.139308 0.735692
vt 0.360692 0.735692
vt 0.353070 0.521930
vt 0.146930 0.521930
vt 0.146930 0.728070
vt 0.353070 0.728070
s 0
f 10/14/1 2/2/1 4/6/1 9/12/1
f 9/12/2 4/6/2 8/11/2 11/17/2
f 11/17/3 8/11/3 6/9/3 12/18/3
f 12/18/4 6/9/4 2/3/4 10/15/4
f 3/5/5 7/10/5 5/8/5 1/1/5
f 8/11/6 4/7/6 2/4/6 6/9/6
f 13/19/5 14/20/5 10/16/5 9/13/5
f 15/21/5 13/19/5 9/13/5 11/17/5
f 16/22/5 15/21/5 11/17/5 12/18/5
f 14/20/5 16/22/5 12/18/5 10/16/5
f 1/1/2 5/8/2 24/30/2 22/28/2
f 15/21/3 16/22/3 20/26/3 19/25/3
f 3/5/3 1/1/3 22/28/3 21/27/3
f 5/8/1 7/10/1 23/29/1 24/30/1
f 21/27/5 22/28/5 18/24/5 17/23/5
f 20/26/4 18/24/4 27/33/4 28/34/4
f 24/30/5 23/29/5 19/25/5 20/26/5
f 23/29/4 21/27/4 30/36/4 29/35/4
f 14/20/1 13/19/1 17/23/1 18/24/1
f 7/10/4 3/5/4 21/27/4 23/29/4
f 16/22/4 14/20/4 18/24/4 20/26/4
f 13/19/2 15/21/2 19/25/2 17/23/2
f 29/35/5 30/36/5 26/32/5 25/31/5
f 31/37/5 32/38/5 28/34/5 27/33/5
f 17/23/2 19/25/2 25/31/2 26/32/2
f 19/25/7 23/29/7 29/35/7 25/31/7
f 21/27/8 17/23/8 26/32/8 30/36/8
f 24/30/9 20/26/9 28/34/9 32/38/9
f 18/24/10 22/28/10 31/37/10 27/33/10
f 22/28/2 24/30/2 32/38/2 31/37/2
